<svg width="28" height="25" viewBox="0 0 28 25"  fill="#ffdead" xmlns="http://www.w3.org/2000/svg">
<path d="M25.0811 2.90948C23.6971 1.391 21.7981 0.554688 19.7334 0.554688C18.1901 0.554688 16.7768 1.04826 15.5325 2.02159C14.9047 2.51289 14.3358 3.11397 13.8342 3.81554C13.3328 3.11418 12.7637 2.51289 12.1357 2.02159C10.8916 1.04826 9.47824 0.554688 7.93495 0.554688C5.87029 0.554688 3.97105 1.391 2.58706 2.90948C1.2196 4.41022 0.466309 6.46046 0.466309 8.68278C0.466309 10.9701 1.30894 13.0639 3.11802 15.2722C4.73638 17.2475 7.06233 19.2527 9.75586 21.5747C10.6756 22.3677 11.7181 23.2665 12.8006 24.224C13.0866 24.4774 13.4536 24.6169 13.8342 24.6169C14.2146 24.6169 14.5818 24.4774 14.8673 24.2244C15.9498 23.2668 16.993 22.3675 17.9131 21.5741C20.6062 19.2525 22.9322 17.2475 24.5506 15.272C26.3596 13.0639 27.2021 10.9701 27.2021 8.68257C27.2021 6.46046 26.4488 4.41022 25.0811 2.90948Z"/>
</svg>
